<?xml version="1.0" encoding="utf-8"?>
<!-- Generator: Adobe Illustrator 19.2.1, SVG Export Plug-In . SVG Version: 6.00 Build 0)  -->
<svg version="1.1" id="layer" xmlns="http://www.w3.org/2000/svg" xmlns:xlink="http://www.w3.org/1999/xlink" x="0px" y="0px"
	 viewBox="0 0 652 652" style="enable-background:new 0 0 652 652;" xml:space="preserve">
<style type="text/css">
	.st0{fill:#66CC00;}
</style>
<g>
	<path class="st0" d="M91.4,313.5c-8.1,2.9-18.3,2.3-26.4,4.3c-4.1,0.9-11.5,2-13.3,7.2c0.5,1.8-0.9,6.5,0.7,8.4
		c4.3,8.8,12.2,0.2,18.7,1.8c1.4-1.6,6.3-0.5,9-2c1.1-0.2,2,1.6,1.8,2.5c0,2-2.3,1.8-2.7,3.6c-13.1,5.9-24.8,4.5-37.3-0.5
		c-3.2-0.2-3.2-5.9-3.4-7c5.6-14.4,17.2-25.7,30.5-35.2c10.6-9,8.4,9.5,17.6,7.7c4.3-2.5,4.1-5,4.7-9.3c-1.8-5.2-2.9-13.3-10.2-14.4
		c-2-0.9-5.2-2.5-7.9-0.9c-2.9-1.8-4.3,2.5-7.5,2.7c-6.5,2.3-11.1,10.2-18.3,13.1c-1.6,3.8-6.1,5.2-7.5,9.3
		c-3.2,2.9-4.3,5.2-6.3,8.4c-0.5,0.7-2.3,0-1.4,1.8c-1.1,0.5-1.1,2-2.5,2c0.2,2-2.3,5-2.3,7c-3.8,7-0.2,14.9,2,21.7
		c4.1,4.3,4.5,6.1,10.4,7.9c9.7,3.6,22.8,5.4,32.7,1.4c2.3,0,4.1-3.2,6.8-1.6c0.5,5-2.3,12,0.5,17.4c4.3,1.6,8.6,3.6,12.9,1.6
		c2.3-1.6,2.3-5,2.9-7.9c-1.1-9.7,1.4-20.5,5.4-30.5c3.8-6.8,0.2-14.7-4.1-19.9L91.4,313.5z"/>
	<path class="st0" d="M423.5,339.3c-7.2-1.8-12.2,3.8-19,4.1c-3.6,0.7-5.9-2-8.4-3.8c-0.2-1.6,0.2-2.9,1.4-3.8
		c2-0.2,4.7-2.5,7.2-0.9c5-2.5,10.2-0.7,16.5-2.7c4.3-1.6,11.7,0.9,13.5-6.1c0.2-5.2,0.5-11.7-4.5-14.4c-7.7,4.7-16.3,5.9-25.3,5.2
		c-0.5-3.2,2.9-6.1,4.1-8.1l12.9-3.2c7.5-2.3,18.1-2.3,26-6.3c2.3-3.4,0.5-7.5,0-11.3c0-1.8-2.3-2.3-1.6-4.1
		c-1.6-1.8-3.2-5.4-6.3-4.5c-10.8,4.3-24.2,7.2-36.1,9l-3.4,2.3c-2,5.6-5,11.1-6.8,16.5c-2.3,5-6.1,9.3-7.5,14
		c-4.7,7.5-5.6,17.8-3.4,26.6c3.2,7.9,11.7,13.3,19.6,13.8c7.2,2.5,15.1-1.4,21.4-6.3c0.7-2,2.3-5.2,1.6-6.8
		C426.9,345.1,424.6,341.8,423.5,339.3z"/>
	<path class="st0" d="M193.7,313.8c-4.1,0.7-7.7,2.7-12,0.7c-0.9-1.6,0.7-3.4,1.4-5c10.6-5.4,22.8-4.7,33.4-9
		c1.8-2.7-0.9-5.9-0.9-8.6c-0.7-3.4-2.3-6.3-4.5-8.8c-13.1,1.1-25.3,5.2-37.9,7.9c-5.2-0.2-8.6,5.2-10.6,8.6c0,5.4,0.5,8.6,4.3,11.5
		c0.5,3.4-0.2,7.5-2.9,10.2c-2.3,7.5-4.7,13.5-2.9,21.7c3.2,11.5,15.6,15.6,27.3,17.6c5.2,0.2,10.2-2.7,12.2-7
		c0.7-6.5-0.5-10.2-5.2-15.1c-2.5-0.9-4.3,1.6-6.3,2.5c-5,0.5-8.8,0-12.6-2.9c0-1.1,0-3.4,1.1-4.7c9.7-3.4,19.9-1.1,29.8-4.1
		c3.2-5.6,1.4-11.3-2.5-16.3C201.1,310.4,197.3,312.9,193.7,313.8z"/>
	<path class="st0" d="M268.2,301.8c2.9,0.2,4.3-3.2,4.3-4.5c0.9-4.5-3.4-7.2-4.1-11.5c-4.7-5.2-12.4-0.5-18.3-0.7
		c-8.1,2.9-19.2,3.4-26.9,9.9c-1.4,3.4-0.9,6.8-1.4,10.4c-4.7,9-7.2,20.1-9.5,30.3c0,6.5,3.8,12.2,7,17.8c1.1,4.5,7.5,2.3,9.7,5.2
		c7.2,0.5,21,3.6,25.5-5c0-3.2,1.8-9-1.1-12.4c-0.9-2.3-2.9-4.5-5.4-5.2c-2.7,4.1-7.7,4.3-12.2,4.7c-3.4-1.4-9,0.2-9.5-4.7
		c1.8-2.9,7.2-2.9,9.5-3.4c1.8-1.4,6.8,0.5,8.1-1.6c6.5-0.2,11.1-1.6,16.9-3.8c3.8-1.6,1.6-5.9,2-8.4c-2.7-3.8-2-9.7-8.6-9.5
		c-2.7,2.5-7.9,2.9-11.3,4.3c-2.7,0-6.1,1.1-7.9,0C239.9,298.9,257.3,304.7,268.2,301.8z"/>
	<path class="st0" d="M143.3,329.8c-1.8-4.1,5.2-4.7,5.2-9c6.5-9.9,4.3-22.4-2.3-32.5c-3.4-5.9-10.4-9-17.4-8.4
		c-2.5-2-5.9,3.4-9.7,1.1c-1.4,0.7-4.3,1.6-4.3,4.1c-4.1,2.3-3.6,8.1-3.6,11.5c0.9,4.3,7,4.3,3.8,9c-1.8,2.5-1.1,7.2-4.1,10.2
		c-3.4,0-4.7,2-6.1,5c-1.1,4.1,1.1,9.5,3.4,12.2c-0.9,5.6-0.5,8.1-1.4,13.5l0.2,0.2c-0.7,2.3,0.5,6.1,0.9,8.1
		c1.8,2.7,4.3,6.5,8.1,6.1c2.5,0.2,4.1-0.5,5-2.5c0.7-3.4,1.6-6.8-0.5-10.2c1.4-2.3-0.9-6.3,0.7-9c0.2-2,0.5-2,2.5-2.7
		c3.2,2.9,6.8,5.4,10.4,8.4c7,3.6,9.5,13.3,18.5,12.2c2.7-3.2,7-6.8,7-10.8C159.1,336.1,148.5,336.8,143.3,329.8z M130,314.2
		c-0.2,0.9-1.6,0.2-2,0.9l-0.7-0.7c1.1-5.4,2.3-11.1,2.3-16.7c3.8-0.7,5.2,0.2,7.9,3.2C139.7,307.2,133.8,310.8,130,314.2z"/>
	<path class="st0" d="M391.2,303.4c-0.9-8.1-4.5-17.8-13.8-20.5c-12-2.9-28-2.3-38.2,2.9c-4.7-1.4-8.8,2.5-11.5,1.6
		c-2.5,1.4-1.6,4.3-4.1,5c-0.2-4.3-3.2-7.9-6.8-10.4c-4.3,0.7-5.4,0.7-7.5,4.5c0.9,3.2,0.2,8.8,0.5,11.7c-0.9,6.1-0.7,12.9-1.4,18.3
		c-1.4,1.8,0.9,4.5-2.3,4.5c-4.3-5.2-7.7-10.2-11.7-15.6c-2-7-0.5-13.8-1.8-20.3c-1.8-4.1-6.8-3.8-10.4-5.2
		c-2.7,1.1-5.2,2.9-5.4,5.9c-2.9,3.4-1.4,7.7-2.3,12c0.2,2.5,2,6.5,0.9,8.1c-1.1,1.8-0.5,4.7-0.5,6.8c-0.7,8.1-3.2,16.7-4.7,24.6
		c-2.3,3.2-0.7,7.2-1.6,10.4c0.7,3.4,0.7,5.4,2.9,7.5c2.9,1.8,8.1,4.1,11.5,1.8c0.7-4.5,3.4-7.9,2-12.6c1.1-5.9,1.8-12.2,4.5-17.8
		c0.9-0.5,1.4,0.7,2,1.1c4.7,7.9,11.1,15.4,12.6,23.3c-1.4,3.2,3.2,8.4,4.5,10.4c4.3-0.7,6.8,1.6,10.6-1.1c3.8-14,0.5-28,2.9-43.1
		c0.2-4.5,2.3-9.3-0.5-12.2c-0.5-1.6,0.5-2.5,2.3-3.2c6.3,7.9,12.6-3.4,19.4-1.6c2.9,1.8,1.4,7,1.4,10.8l-5.9,1.6
		c-4.5,2-3.4,7.5-4.5,11.5c0.7,4.1,4.5,6.5,7.7,8.8c0.9,9-4.5,19,2.7,27.3c0.9,0,2.3,0,2.9,1.1c2.7,1.4,4.5,0,6.5-0.9
		c4.7-6.8,0-10.6,2.9-18.1l-0.5-0.7c1.6-5-0.2-8.8,2.7-13.1c7-2.5,13.5-3.4,18.3-9C384.7,316,389.4,309.9,391.2,303.4z M368,307.7
		c-1.8-0.2-7.2,4.5-9.5,0c0.2-3.2-2-8.1,0.7-9.7c5.4,0.2,9.9,0.5,15.4,2.9C375.2,305,369.8,306.1,368,307.7z"/>
	<path class="st0" d="M626,300c-2-2.3,0.7-7-0.2-9c-2.3-3.6-3.6-9-8.8-9.3c-5.9,1.4-11.7,1.8-17.2,3.8c-7.9,0-19.4,2.7-28,4.3
		c-3.6-0.7-10.2,1.1-13.5,3.4c-2.5,1.8-2.9,6.1-3.6,8.6c0.2,9.3-7.5,14.9-7.5,23c-2.3,4.5,0,7.5-2,11.7l-0.5-0.5
		c-3.6-8.1-9.5,2.9-14.4,2c-8.8,1.1-16.3-2.9-23.7-8.1c-4.7-2.3-2-6.1-1.6-9.3c5-9.5,12.9-16.5,22.6-17.6c2.5,1.8-0.7,5.4,0,6.5
		c-0.2,3.2,0.5,6.5,2.3,8.4c2.5,0.9,6.3,2.7,8.6,2.3c2.7-0.7,4.7-4.1,6.3-6.1c2-5.4,2.5-8.4,1.4-13.5c-0.9-5.9-4.1-10.2-8.6-12.6
		c-1.8,0.5-5.9-1.1-7.9,0.2c-11.3,1.4-21.7,6.1-31.4,13.5c0.2,2.5-2.5,2.7-3.8,5c-1.1,2.9-2.9,6.3-5.6,8.6c-1.4-9-2.5-17.8-6.3-26
		c-1.6-4.5-5.9-7.9-10.2-8.1c-1.6,0.5-3.6,0.9-3.8,2.9l-0.9-0.2c-5.6,4.7-9,12.4-12.6,18.7c-1.6,2.9-4.1,6.5-4.3,8.6
		c-2.5,7.2-8.1,7.9-9.3,14.9c1.1,9.5-12.9,16.3-9,26.2c1.6,4.5,5.2,5,9.3,6.8c4.5-4.1,6.5-10.8,9-15.8c0.9-5.9,9-3.8,12-5.4
		c1.8-1.1,4.7-0.2,6.3-0.9c0.7,0,3.6,1.1,3.6,2.9c-1.4,4.5-0.7,9,0.2,14.4c2.7,4.5,6.1,5.4,10.8,5.6c2.3-3.2,3.4-4.5,3.6-7.9
		c1.8-3.4-1.6-7.2-0.2-10.8c0.5-1.4-0.5-6.1,1.8-7.5c2.5,3.4,5.6,8.1,9,10.8c2.3,0.7,2.7,3.8,5.4,4.1c6.8,6.5,18.3,10.2,27.3,11.5
		c8.8,0.2,13.3-7.7,16.3-14.7c3.2,4.1,7.2,8.6,12.2,10.4c9.3,3.8,18.1-0.5,26.9-0.9c2.5-1.6,7.5-4.3,7.2-8.4c0.7-2.9,0.5-7-2.9-8.8
		c-4.5-2-8.1-0.2-12.4,1.6c-2.7-1.8-6.5,0.9-9.5,0.7c-2.9-0.5-7-0.5-7.7-4.1c1.4-2.9,4.7-3.2,7.9-2.9c5-2.7,10.2-1.1,16.5-2
		c4.1-0.5,7.9,0.9,11.7-0.7c-0.2-2,3.6-6.1,0.7-7.2c1.1-2.9-2.5-6.1-4.3-8.8l-23.3,0.7l-2-1.1c0-3.2,2-5.9,4.1-7.7
		c9.5-2.3,18.7-2.5,28-3.4v0.2l2.7-0.5c5.4,1.6,11.5-1.6,16.5-0.9c1.4,1.6,3.4,1.6,4.7,1.4C624.9,302.9,626.2,301.6,626,300z
		 M471.4,317.1c-2-0.7-7,2.9-7.9-0.9c2.5-4.5,5.6-8.8,7.2-13.5c2-0.2,1.8,2.3,2.7,3.4C472.7,309.7,474.7,314.2,471.4,317.1z"/>
</g>
</svg>
